<?xml version="1.0" standalone="no"?>
<!DOCTYPE svg PUBLIC "-//W3C//DTD SVG 20010904//EN"
 "http://www.w3.org/TR/2001/REC-SVG-20010904/DTD/svg10.dtd">
<svg version="1.0" xmlns="http://www.w3.org/2000/svg"
 width="43.000000pt" height="48.000000pt" viewBox="0 0 43.000000 48.000000"
 preserveAspectRatio="xMidYMid meet">

<g transform="translate(0.000000,48.000000) scale(0.100000,-0.100000)"
fill="#000000" stroke="none">
<path d="M135 383 c-69 -36 -105 -95 -105 -170 0 -49 27 -119 45 -116 6 1 14
17 18 35 4 19 26 57 47 86 l40 52 -45 0 c-24 0 -55 -4 -69 -10 -16 -6 -26 -6
-26 0 0 12 65 30 108 30 30 0 32 2 32 38 0 21 -5 43 -12 50 -9 9 -8 12 4 12 8
0 21 -7 28 -15 7 -8 21 -15 31 -15 13 0 19 -7 19 -21 0 -26 20 -101 31 -113
10 -12 48 66 51 106 3 29 -1 35 -32 50 -43 22 -125 23 -165 1z"/>
<path d="M202 338 c6 -18 28 -21 28 -4 0 9 -7 16 -16 16 -9 0 -14 -5 -12 -12z"/>
<path d="M342 292 c-7 -22 -28 -60 -47 -85 -22 -28 -31 -48 -24 -52 12 -8 72
1 113 17 27 11 28 14 22 55 -6 46 -31 103 -45 103 -4 0 -13 -17 -19 -38z"/>
<path d="M210 194 c0 -54 4 -83 10 -79 13 8 13 165 0 165 -6 0 -10 -35 -10
-86z"/>
<path d="M136 188 c-10 -15 -24 -48 -31 -73 l-14 -46 31 -19 c40 -24 106 -36
121 -21 7 7 0 21 -26 46 -20 20 -37 44 -38 53 0 9 -6 33 -13 52 l-13 34 -17
-26z"/>
<path d="M370 149 c-14 -4 -45 -7 -68 -8 -35 -1 -45 -5 -49 -20 -3 -11 -11
-21 -18 -23 -9 -2 -4 -14 16 -36 l30 -33 35 22 c32 19 93 95 83 103 -2 1 -15
-1 -29 -5z"/>
</g>
</svg>
